<svg xmlns="http://www.w3.org/2000/svg" version="1.1" xmlns:xlink="http://www.w3.org/1999/xlink" xmlns:svgjs="http://svgjs.dev/svgjs" width="2000" height="1247" viewBox="0 0 2000 1247"><g transform="matrix(1,0,0,1,-1.2121212121212466,0.504858299595071)"><svg viewBox="0 0 396 247" data-background-color="#ffffff" preserveAspectRatio="xMidYMid meet" height="1247" width="2000" xmlns="http://www.w3.org/2000/svg" xmlns:xlink="http://www.w3.org/1999/xlink"><g id="tight-bounds" transform="matrix(1,0,0,1,0.2400000000000091,-0.09999999999999432)"><svg viewBox="0 0 395.52 247.2" height="247.2" width="395.52"><g><svg></svg></g><g><svg viewBox="0 0 395.52 247.2" height="247.2" width="395.52"><mask id="42f79e5c-b390-429b-9952-4bb82c885c5a"><rect width="640" height="400" fill="white"></rect><g transform="matrix(1,0,0,1,39.55199999999999,66.79357355450776)"><svg viewBox="0 0 316.416 113.61285289098447" height="113.61285289098447" width="316.416"><g><svg viewBox="0 0 316.416 113.61285289098447" height="113.61285289098447" width="316.416"><g><svg viewBox="0 0 316.416 113.61285289098447" height="113.61285289098447" width="316.416"><g><svg viewBox="0 0 316.416 113.61285289098447" height="113.61285289098447" width="316.416"><g id="SvgjsG1030"><svg viewBox="0 0 316.416 113.61285289098447" height="113.61285289098447" width="316.416" id="SvgjsSvg1029"><g><svg viewBox="0 0 316.416 66.36223006988922" height="66.36223006988922" width="316.416"><g transform="matrix(1,0,0,1,0,0)"><svg width="316.416" viewBox="-0.08999999999999986 -38.62 201.64000000000001 43.08" height="66.36223006988922" data-palette-color="#011434"><path d="M25.73-2.1L25.73-2.1Q26.98-2.1 26.98-1.12L26.98-1.12Q26.98-0.68 26.44-0.34 25.9 0 24.58 0L24.58 0 3.91 0 3.91-34.55Q13.53-34.55 23.14-34.55L23.14-34.55 25.15-34.62Q26.98-34.62 26.98-33.54L26.98-33.54Q26.98-33.13 26.67-32.78 26.37-32.42 25.98-32.42L25.98-32.42Q25.34-32.42 24.63-32.57L24.63-32.57Q23.58-32.79 21.75-32.79L21.75-32.79 16.36-32.79 16.36-25.34 20.8-25.34Q20.8-25.34 23.8-25.46L23.8-25.46Q24.34-25.46 24.72-25.21 25.1-24.95 25.1-24.49L25.1-24.49Q25.1-23.46 23.73-23.46L23.73-23.46 22.68-23.49Q21.88-23.56 21.34-23.56L21.34-23.56 16.36-23.56 16.36-1.78 21.75-1.78Q23.56-1.78 24.32-1.93L24.32-1.93Q25.22-2.1 25.73-2.1ZM30.75 0.46Q30.39 0.46 30.1 0.18 29.81-0.1 29.81-0.49L29.81-0.49Q29.81-1.27 30.69-1.93L30.69-1.93Q31.56-2.59 31.96-3.13L31.96-3.13Q31.96-3.13 38.43-11.06L38.43-11.06 29.44-26.07 40.55-26.07 45.73-17.46Q50.24-23.27 50.58-23.8L50.58-23.8Q51.24-24.83 51.46-25.39L51.46-25.39Q51.93-26.51 52.76-26.51L52.76-26.51Q53.15-26.51 53.45-26.26 53.76-26 53.76-25.63 53.76-25.27 53.62-24.9 53.49-24.54 53.17-23.97L53.17-23.97Q52.54-22.9 50.95-20.87L50.95-20.87 46.82-15.63 56.22 0 45.07 0 39.5-9.28 33.54-1.78Q32 0.15 31.35 0.39L31.35 0.39Q31.1 0.46 30.75 0.46ZM88.23-19.34L88.23-19.34Q88.28-18.75 88.28-18.16L88.28-18.16 88.28 0 77.8 0 77.8-23.68Q77.53-23.8 77.17-23.8L77.17-23.8 76.39-23.8Q74.48-23.8 71.94-21.19L71.94-21.19Q71.16-20.39 70.45-19.41L70.45-19.41 70.45 0 59.96 0 59.96-26.07 70.45-26.07 70.45-22.14Q74.58-26.51 79.68-26.51L79.68-26.51Q86.27-26.51 87.81-21.63L87.81-21.63Q89.91-24.05 92.44-25.28 94.97-26.51 97.53-26.51L97.53-26.51Q101.9-26.51 104-24.44 106.1-22.36 106.1-18.16L106.1-18.16 106.1 0 95.62 0 95.62-23.71Q95.41-23.8 94.53-23.8 93.65-23.8 92.9-23.47 92.16-23.14 91.38-22.56L91.38-22.56Q89.67-21.31 88.23-19.34ZM130.41 0L130.41-1.61Q127.29 0.46 123.48 0.46L123.48 0.46Q118.43 0.46 115.37-2.08L115.37-2.08Q112.2-4.69 112.2-9.33L112.2-9.33Q112.2-13.43 115.35-16.06L115.35-16.06Q118.57-18.73 123.82-18.73L123.82-18.73Q127.34-18.73 130.41-17.38L130.41-17.38 130.41-24.1Q128.19-24.73 126.49-24.73 124.8-24.73 123.63-24.58 122.45-24.44 121.4-24.15L121.4-24.15Q119.13-23.51 117.96-22.44L117.96-22.44Q117.28-21.8 116.72-21.8 116.15-21.8 115.86-22.08 115.57-22.36 115.57-22.71 115.57-23.05 115.69-23.33 115.81-23.61 116.15-23.9L116.15-23.9Q116.89-24.54 118.6-25.17L118.6-25.17Q122.14-26.51 125.7-26.51L125.7-26.51Q136.54-26.51 139.54-21.34L139.54-21.34Q140.86-19.04 140.86-15.31L140.86-15.31 140.86 0 130.41 0ZM130.41-3.71L130.41-15.48Q127.34-16.97 124.28-16.97L124.28-16.97Q123.8-16.97 123.36-16.89L123.36-16.89 123.36-1.37Q123.48-1.34 123.63-1.34 123.77-1.34 123.92-1.34L123.92-1.34Q127.26-1.34 130.41-3.71L130.41-3.71ZM158.53 0.46L158.53 0.46Q148.96 0.46 148.96-8.28L148.96-8.28 148.94-24.29 146.13-24.17Q144.81-24.17 144.81-25.17 144.81-26.17 146.23-26.17L146.23-26.17 148.57-26.07 148.94-26.07 148.94-29.86 159.41-34.55 159.41-26.07 162.69-26.07 165-26.17Q166.45-26.17 166.45-25.15L166.45-25.15Q166.45-24.68 166.04-24.43 165.64-24.17 165.13-24.17L165.13-24.17 162.1-24.29 159.41-24.29 159.41-1.34Q162.27-1.39 164.17-2.98L164.17-2.98Q165.08-3.66 165.46-4.74 165.83-5.81 166.14-6.12 166.45-6.42 166.86-6.42L166.86-6.42Q167.28-6.42 167.57-6.09 167.86-5.76 167.86-5.31 167.86-4.86 167.62-4.31 167.37-3.76 166.88-3.15L166.88-3.15Q165.79-1.78 164.35-0.98L164.35-0.98Q161.73 0.46 158.53 0.46ZM194.67-5.93L194.67-5.93Q195.62-5.93 195.62-5.05L195.62-5.05Q195.62-4.39 194.76-3.49L194.76-3.49Q190.91 0.46 184.19 0.46L184.19 0.46Q178.16 0.46 174.04-3.17L174.04-3.17Q169.76-6.96 169.76-12.74L169.76-12.74Q169.76-18.65 173.62-22.46L173.62-22.46Q177.7-26.51 184.46-26.51L184.46-26.51Q189.88-26.51 193.57-23.22L193.57-23.22Q197.55-19.68 197.55-13.92L197.55-13.92Q197.55-13.09 197.5-12.16L197.5-12.16 181.38-12.16 181.38-1.68Q183.04-1.34 185.12-1.34L185.12-1.34Q189.51-1.34 192.61-4.25L192.61-4.25Q193.25-4.88 193.52-5.25L193.52-5.25Q194.08-5.93 194.67-5.93ZM188.15-13.94L188.15-24.27Q186.56-24.73 184.56-24.73 182.56-24.73 181.38-24.46L181.38-24.46 181.38-13.94 188.15-13.94Z" opacity="1" transform="matrix(1,0,0,1,0,0)" fill="black" class="wordmark-text-0" id="SvgjsPath1028" stroke-width="7" stroke="black" stroke-linejoin="round"></path></svg></g></svg></g><g transform="matrix(1,0,0,1,3.5,79.42282190611093)"><svg viewBox="0 0 309.416 34.19003098487355" height="34.19003098487355" width="309.416"><g transform="matrix(1,0,0,1,0,0)"><svg width="309.416" viewBox="0.5499999999999998 -40.3 493.09999999999997 55.35" height="34.19003098487355" data-palette-color="#011434"><path d="M8.3-7Q10.05-7 11-5.95 11.95-4.9 11.95-3.25L11.95-3.25Q11.95-1.65 11-0.55 10.05 0.55 8.15 0.55L8.15 0.55Q6.4 0.55 5.48-0.55 4.55-1.65 4.55-3.15L4.55-3.15Q4.55-4.75 5.5-5.88 6.45-7 8.3-7L8.3-7ZM8.3-25.5Q10.05-25.5 11-24.45 11.95-23.4 11.95-21.75L11.95-21.75Q11.95-20.15 11-19.05 10.05-17.95 8.15-17.95L8.15-17.95Q6.4-17.95 5.48-19.05 4.55-20.15 4.55-21.6L4.55-21.6Q4.55-23.25 5.5-24.38 6.45-25.5 8.3-25.5L8.3-25.5ZM19.64 0L19.64-33.85 39.74-33.85 39.74-29.35 25.59-29.35 25.59-19.9 37.24-19.9 36.49-15.35 25.59-15.35 25.59-4.5 40.49-4.5 40.49 0 19.64 0ZM49.64 0L43.24 0 51.59-13.2 44.29-24.9 50.89-24.9 54.04-19.75Q54.34-19.25 54.84-18.2 55.34-17.15 55.84-16.1L55.84-16.1Q56.44-17 57.01-17.9 57.59-18.8 58.04-19.65L58.04-19.65Q59.24-21.85 59.76-23.4 60.29-24.95 60.29-24.9L60.29-24.9 66.19-24.9Q66.19-24.95 65.59-23.25 64.99-21.55 63.49-18.75L63.49-18.75Q62.64-17.25 61.54-15.78 60.44-14.3 59.39-13.15L59.39-13.15 67.49 0 60.99 0 57.29-6.45 55.34-10.1 53.39-6.4 49.64 0ZM78.58 10.05L72.88 11.05 72.88-12.6Q72.88-15.6 72.48-17.63 72.08-19.65 71.63-20.9L71.63-20.9Q71.08-22.35 70.43-23.25L70.43-23.25 74.93-25.05Q75.53-24.45 76.03-23.55L76.03-23.55Q76.43-22.8 76.83-21.73 77.23-20.65 77.43-19.2L77.43-19.2Q78.28-22.2 80.13-23.75 81.98-25.3 85.28-25.3L85.28-25.3Q87.63-25.3 89.36-24.43 91.08-23.55 92.21-21.93 93.33-20.3 93.88-18 94.43-15.7 94.43-12.9L94.43-12.9Q94.43-10.05 93.58-7.63 92.73-5.2 91.16-3.45 89.58-1.7 87.38-0.7 85.18 0.3 82.48 0.3L82.48 0.3Q81.53 0.3 80.56 0.2 79.58 0.1 78.58 0L78.58 0 78.58 10.05ZM84.33-21.3Q83.08-21.3 82.03-20.45 80.98-19.6 80.21-18.2 79.43-16.8 79.01-15.05 78.58-13.3 78.58-11.45L78.58-11.45 78.58-4.25Q79.08-4.1 80.08-3.9 81.08-3.7 81.83-3.7L81.83-3.7Q83.73-3.7 84.98-4.35 86.23-5 86.98-6.15 87.73-7.3 88.03-8.9 88.33-10.5 88.33-12.4L88.33-12.4Q88.33-14.15 88.23-15.75 88.13-17.35 87.71-18.6 87.28-19.85 86.48-20.58 85.68-21.3 84.33-21.3L84.33-21.3ZM106.48 0.2Q103.63 0.2 102.28-1.38 100.93-2.95 100.93-5.4L100.93-5.4 100.93-35.25 106.63-36.3 106.63-5.95Q106.63-4.8 107.08-4.35 107.53-3.9 108.38-3.9L108.38-3.9Q108.88-3.9 109.35-3.95 109.83-4 110.23-4.1L110.23-4.1Q110.68-4.2 111.03-4.3L111.03-4.3 111.73-0.7Q111.08-0.45 110.28-0.25L110.28-0.25Q109.58-0.05 108.63 0.08 107.68 0.2 106.48 0.2L106.48 0.2ZM126.57-25.5Q132.32-25.5 134.92-22.1 137.52-18.7 137.52-12.75L137.52-12.75Q137.52-9.95 136.82-7.53 136.12-5.1 134.7-3.33 133.27-1.55 131.12-0.53 128.97 0.5 126.12 0.5L126.12 0.5Q123.27 0.5 121.2-0.38 119.12-1.25 117.77-2.9 116.42-4.55 115.8-6.9 115.17-9.25 115.17-12.2L115.17-12.2Q115.17-15.05 115.87-17.48 116.57-19.9 118-21.68 119.42-23.45 121.57-24.48 123.72-25.5 126.57-25.5L126.57-25.5ZM126.07-21.3Q124.62-21.3 123.7-20.65 122.77-20 122.25-18.82 121.72-17.65 121.52-16.07 121.32-14.5 121.32-12.7L121.32-12.7Q121.32-10.85 121.55-9.2 121.77-7.55 122.37-6.33 122.97-5.1 124-4.4 125.02-3.7 126.62-3.7L126.62-3.7Q128.07-3.7 129-4.35 129.92-5 130.45-6.18 130.97-7.35 131.17-8.9 131.37-10.45 131.37-12.25L131.37-12.25Q131.37-14.1 131.15-15.75 130.92-17.4 130.32-18.65 129.72-19.9 128.7-20.6 127.67-21.3 126.07-21.3L126.07-21.3ZM155.37-19.7Q154.47-19.7 153.57-19.25 152.67-18.8 151.97-18.03 151.27-17.25 150.82-16.15 150.37-15.05 150.37-13.7L150.37-13.7 150.37 0 144.67 0 144.67-12.6Q144.67-15.6 144.27-17.63 143.87-19.65 143.42-20.9L143.42-20.9Q142.87-22.35 142.22-23.25L142.22-23.25 146.72-25.05Q147.17-24.5 147.67-23.7L147.67-23.7Q148.07-23 148.47-22.05 148.87-21.1 149.12-19.8L149.12-19.8Q150.12-22.7 152.02-23.98 153.92-25.25 156.32-25.25L156.32-25.25Q157.47-25.25 158.47-24.98 159.47-24.7 159.42-24.7L159.42-24.7 157.82-19.15Q157.87-19.15 157.24-19.43 156.62-19.7 155.37-19.7L155.37-19.7ZM161.36-11.85Q161.36-15.2 162.29-17.75 163.21-20.3 164.84-22.03 166.46-23.75 168.66-24.63 170.86-25.5 173.41-25.5L173.41-25.5Q175.66-25.5 177.24-24.95 178.81-24.4 179.81-23.45 180.81-22.5 181.29-21.2 181.76-19.9 181.76-18.4L181.76-18.4Q181.76-16.6 180.76-14.98 179.76-13.35 177.89-12.13 176.01-10.9 173.36-10.18 170.71-9.45 167.41-9.4L167.41-9.4Q167.56-8.25 167.89-7.23 168.21-6.2 168.84-5.43 169.46-4.65 170.46-4.2 171.46-3.75 172.96-3.75L172.96-3.75Q174.06-3.75 175.31-4 176.56-4.25 177.61-4.6L177.61-4.6Q178.86-5 180.06-5.5L180.06-5.5 181.56-1.95Q180.26-1.3 178.76-0.8L178.76-0.8Q177.46-0.35 175.76 0 174.06 0.35 172.16 0.35L172.16 0.35Q169.26 0.35 167.21-0.53 165.16-1.4 163.86-3 162.56-4.6 161.96-6.85 161.36-9.1 161.36-11.85L161.36-11.85ZM172.96-21.6Q171.31-21.6 170.24-20.83 169.16-20.05 168.51-18.82 167.86-17.6 167.59-16.07 167.31-14.55 167.26-13L167.26-13Q169.66-13.1 171.34-13.63 173.01-14.15 174.06-14.93 175.11-15.7 175.59-16.6 176.06-17.5 176.06-18.4L176.06-18.4Q176.06-19.85 175.21-20.73 174.36-21.6 172.96-21.6L172.96-21.6ZM207.7-7Q209.45-7 210.4-5.95 211.35-4.9 211.35-3.25L211.35-3.25Q211.35-1.65 210.4-0.55 209.45 0.55 207.55 0.55L207.55 0.55Q205.8 0.55 204.88-0.55 203.95-1.65 203.95-3.15L203.95-3.15Q203.95-4.75 204.9-5.88 205.85-7 207.7-7L207.7-7ZM207.7-25.5Q209.45-25.5 210.4-24.45 211.35-23.4 211.35-21.75L211.35-21.75Q211.35-20.15 210.4-19.05 209.45-17.95 207.55-17.95L207.55-17.95Q205.8-17.95 204.88-19.05 203.95-20.15 203.95-21.6L203.95-21.6Q203.95-23.25 204.9-24.38 205.85-25.5 207.7-25.5L207.7-25.5ZM245.55-24.9L251.35-24.9 251.45-24.5Q251.5-24.05 251.6-23.35 251.7-22.65 251.77-21.7 251.85-20.75 251.85-19.8L251.85-19.8Q251.85-14.25 251.22-10.4 250.6-6.55 249.17-4.17 247.75-1.8 245.4-0.73 243.05 0.35 239.6 0.35L239.6 0.35Q234.75 0.35 232.95-3.65L232.95-3.65Q232.05-1.6 230.47-0.63 228.9 0.35 225.85 0.35L225.85 0.35Q221.95 0.35 220.25-1.9 218.55-4.15 218.55-8.15L218.55-8.15 218.55-24.9 224.25-24.9 224.25-8.6Q224.25-6.5 225-5.13 225.75-3.75 227.55-3.75L227.55-3.75Q229.85-3.75 231.1-6 232.35-8.25 232.35-13.45L232.35-13.45 232.35-24.9 238-24.9Q237.95-21.15 237.95-17.95L237.95-17.95Q237.95-16.55 237.92-15.15 237.9-13.75 237.9-12.5 237.9-11.25 237.9-10.23 237.9-9.2 237.9-8.6L237.9-8.6Q237.9-6.5 238.7-5.13 239.5-3.75 241.3-3.75L241.3-3.75Q243.05-3.75 244.02-5.1 245-6.45 245.45-8.63 245.9-10.8 246-13.58 246.1-16.35 246.1-19.2L246.1-19.2Q246.1-20.35 246.02-21.38 245.95-22.4 245.82-23.2 245.7-24 245.65-24.45L245.65-24.45 245.55-24.9ZM268.94-25.5Q274.69-25.5 277.29-22.1 279.89-18.7 279.89-12.75L279.89-12.75Q279.89-9.95 279.19-7.53 278.49-5.1 277.07-3.33 275.64-1.55 273.49-0.53 271.34 0.5 268.49 0.5L268.49 0.5Q265.64 0.5 263.57-0.38 261.49-1.25 260.14-2.9 258.79-4.55 258.17-6.9 257.54-9.25 257.54-12.2L257.54-12.2Q257.54-15.05 258.24-17.48 258.94-19.9 260.37-21.68 261.79-23.45 263.94-24.48 266.09-25.5 268.94-25.5L268.94-25.5ZM268.44-21.3Q266.99-21.3 266.07-20.65 265.14-20 264.62-18.82 264.09-17.65 263.89-16.07 263.69-14.5 263.69-12.7L263.69-12.7Q263.69-10.85 263.92-9.2 264.14-7.55 264.74-6.33 265.34-5.1 266.37-4.4 267.39-3.7 268.99-3.7L268.99-3.7Q270.44-3.7 271.37-4.35 272.29-5 272.82-6.18 273.34-7.35 273.54-8.9 273.74-10.45 273.74-12.25L273.74-12.25Q273.74-14.1 273.52-15.75 273.29-17.4 272.69-18.65 272.09-19.9 271.07-20.6 270.04-21.3 268.44-21.3L268.44-21.3ZM297.74-19.7Q296.84-19.7 295.94-19.25 295.04-18.8 294.34-18.03 293.64-17.25 293.19-16.15 292.74-15.05 292.74-13.7L292.74-13.7 292.74 0 287.04 0 287.04-12.6Q287.04-15.6 286.64-17.63 286.24-19.65 285.79-20.9L285.79-20.9Q285.24-22.35 284.59-23.25L284.59-23.25 289.09-25.05Q289.54-24.5 290.04-23.7L290.04-23.7Q290.44-23 290.84-22.05 291.24-21.1 291.49-19.8L291.49-19.8Q292.49-22.7 294.39-23.98 296.29-25.25 298.69-25.25L298.69-25.25Q299.84-25.25 300.84-24.98 301.84-24.7 301.79-24.7L301.79-24.7 300.19-19.15Q300.24-19.15 299.61-19.43 298.99-19.7 297.74-19.7L297.74-19.7ZM312.03 0.2Q309.18 0.2 307.83-1.38 306.48-2.95 306.48-5.4L306.48-5.4 306.48-35.25 312.18-36.3 312.18-5.95Q312.18-4.8 312.63-4.35 313.08-3.9 313.93-3.9L313.93-3.9Q314.43-3.9 314.91-3.95 315.38-4 315.78-4.1L315.78-4.1Q316.23-4.2 316.58-4.3L316.58-4.3 317.28-0.7Q316.63-0.45 315.83-0.25L315.83-0.25Q315.13-0.05 314.18 0.08 313.23 0.2 312.03 0.2L312.03 0.2ZM344.73-1.4L340.28 0.4Q340.18 0.35 339.83-0.08 339.48-0.5 339.05-1.25 338.63-2 338.23-3.13 337.83-4.25 337.73-5.75L337.73-5.75Q336.88-2.75 335-1.23 333.13 0.3 329.93 0.3L329.93 0.3Q327.58 0.3 325.85-0.58 324.13-1.45 322.98-3.08 321.83-4.7 321.28-7 320.73-9.3 320.73-12.1L320.73-12.1Q320.73-14.95 321.6-17.38 322.48-19.8 324.05-21.55 325.63-23.3 327.83-24.3 330.03-25.3 332.68-25.3L332.68-25.3Q333.58-25.3 334.6-25.2 335.63-25.1 336.63-24.95L336.63-24.95 336.63-36.25 342.33-35.25 342.33-12.05Q342.33-9.05 342.68-7.08 343.03-5.1 343.48-3.88 343.93-2.65 344.3-2.1 344.68-1.55 344.73-1.4L344.73-1.4ZM330.88-3.75Q332.13-3.75 333.18-4.6 334.23-5.45 335-6.83 335.78-8.2 336.2-9.95 336.63-11.7 336.63-13.55L336.63-13.55 336.63-20.75Q336.13-20.9 335.13-21.1 334.13-21.3 333.33-21.3L333.33-21.3Q331.43-21.3 330.2-20.65 328.98-20 328.23-18.85 327.48-17.7 327.18-16.1 326.88-14.5 326.88-12.6L326.88-12.6Q326.88-10.85 326.98-9.25 327.08-7.65 327.5-6.43 327.93-5.2 328.73-4.48 329.53-3.75 330.88-3.75L330.88-3.75ZM370.22-7Q371.97-7 372.92-5.95 373.87-4.9 373.87-3.25L373.87-3.25Q373.87-1.65 372.92-0.55 371.97 0.55 370.07 0.55L370.07 0.55Q368.32 0.55 367.39-0.55 366.47-1.65 366.47-3.15L366.47-3.15Q366.47-4.75 367.42-5.88 368.37-7 370.22-7L370.22-7ZM370.22-25.5Q371.97-25.5 372.92-24.45 373.87-23.4 373.87-21.75L373.87-21.75Q373.87-20.15 372.92-19.05 371.97-17.95 370.07-17.95L370.07-17.95Q368.32-17.95 367.39-19.05 366.47-20.15 366.47-21.6L366.47-21.6Q366.47-23.25 367.42-24.38 368.37-25.5 370.22-25.5L370.22-25.5ZM406.16-13L400.56 0 396.36 0 390.71-12.85Q390.46-13.4 390.09-14.35 389.71-15.3 389.26-16.45 388.81-17.6 388.31-18.88 387.81-20.15 387.36-21.45L387.36-21.45Q387.36-20.15 387.34-18.88 387.31-17.6 387.26-16.48 387.21-15.35 387.19-14.48 387.16-13.6 387.16-13.1L387.16-13.1 386.66 0 381.06 0 383.06-33.95 387.71-33.95 396.26-12.75Q396.71-11.6 397.29-10.25 397.86-8.9 398.36-7.6L398.36-7.6Q398.86-8.9 399.41-10.23 399.96-11.55 400.46-12.75L400.46-12.75 409.06-33.95 413.61-33.95 415.61 0 410.06 0 409.51-12.95Q409.46-14.2 409.39-16.53 409.31-18.85 409.26-21.25L409.26-21.25Q408.81-20 408.34-18.75 407.86-17.5 407.46-16.4 407.06-15.3 406.71-14.4 406.36-13.5 406.16-13L406.16-13ZM443.36-23.85L443.36-12.05Q443.36-9.05 443.73-7.03 444.11-5 444.56-3.75L444.56-3.75Q445.11-2.25 445.76-1.4L445.76-1.4 441.31 0.4Q440.66-0.25 440.11-1.15L440.11-1.15Q439.66-1.95 439.26-3.08 438.86-4.2 438.76-5.75L438.76-5.75Q437.91-2.75 436.03-1.23 434.16 0.3 430.96 0.3L430.96 0.3Q428.61 0.3 426.88-0.58 425.16-1.45 424.01-3.08 422.86-4.7 422.31-7 421.76-9.3 421.76-12.1L421.76-12.1Q421.76-14.95 422.63-17.38 423.51-19.8 425.08-21.55 426.66-23.3 428.86-24.3 431.06-25.3 433.71-25.3L433.71-25.3Q435.21-25.3 436.83-25.08 438.46-24.85 439.86-24.6 441.26-24.35 442.23-24.13 443.21-23.9 443.36-23.85L443.36-23.85ZM431.91-3.7Q433.16-3.7 434.21-4.55 435.26-5.4 436.03-6.78 436.81-8.15 437.23-9.93 437.66-11.7 437.66-13.55L437.66-13.55 437.66-20.75Q437.16-20.9 436.16-21.1 435.16-21.3 434.36-21.3L434.36-21.3Q432.46-21.3 431.23-20.65 430.01-20 429.26-18.85 428.51-17.7 428.21-16.1 427.91-14.5 427.91-12.6L427.91-12.6Q427.91-10.85 428.01-9.25 428.11-7.65 428.53-6.4 428.96-5.15 429.76-4.42 430.56-3.7 431.91-3.7L431.91-3.7ZM449-20.85L449-24.9 453.5-24.9 454.5-30.75 459.2-31.8 459.2-24.9 465.35-24.9 464.65-20.85 459.2-20.85 459.2-6.05Q459.2-4.75 459.9-4.38 460.6-4 461.45-4L461.45-4Q462.15-4 462.85-4.1 463.55-4.2 464.1-4.35L464.1-4.35Q464.75-4.5 465.35-4.7L465.35-4.7 466.3-0.95 465.85-0.8Q465.4-0.6 464.53-0.38 463.65-0.15 462.48 0.03 461.3 0.2 459.9 0.2L459.9 0.2Q458.5 0.2 457.33-0.1 456.15-0.4 455.3-1.07 454.45-1.75 453.98-2.8 453.5-3.85 453.5-5.4L453.5-5.4 453.5-20.85 449-20.85ZM469.25-11.85Q469.25-15.2 470.17-17.75 471.1-20.3 472.72-22.03 474.35-23.75 476.55-24.63 478.75-25.5 481.3-25.5L481.3-25.5Q483.55-25.5 485.12-24.95 486.7-24.4 487.7-23.45 488.7-22.5 489.17-21.2 489.65-19.9 489.65-18.4L489.65-18.4Q489.65-16.6 488.65-14.98 487.65-13.35 485.77-12.13 483.9-10.9 481.25-10.18 478.6-9.45 475.3-9.4L475.3-9.4Q475.45-8.25 475.77-7.23 476.1-6.2 476.72-5.43 477.35-4.65 478.35-4.2 479.35-3.75 480.85-3.75L480.85-3.75Q481.95-3.75 483.2-4 484.45-4.25 485.5-4.6L485.5-4.6Q486.75-5 487.95-5.5L487.95-5.5 489.45-1.95Q488.15-1.3 486.65-0.8L486.65-0.8Q485.35-0.35 483.65 0 481.95 0.35 480.05 0.35L480.05 0.35Q477.15 0.35 475.1-0.53 473.05-1.4 471.75-3 470.45-4.6 469.85-6.85 469.25-9.1 469.25-11.85L469.25-11.85ZM480.85-21.6Q479.2-21.6 478.12-20.83 477.05-20.05 476.4-18.82 475.75-17.6 475.47-16.07 475.2-14.55 475.15-13L475.15-13Q477.55-13.1 479.22-13.63 480.9-14.15 481.95-14.93 483-15.7 483.47-16.6 483.95-17.5 483.95-18.4L483.95-18.4Q483.95-19.85 483.1-20.73 482.25-21.6 480.85-21.6L480.85-21.6Z" opacity="1" transform="matrix(1,0,0,1,0,0)" fill="black" class="slogan-text-1" id="SvgjsPath1027" stroke-width="7" stroke="black" stroke-linejoin="round"></path></svg></g></svg></g></svg></g></svg></g></svg></g></svg></g></svg></g></mask><g transform="matrix(1,0,0,1,39.55199999999999,66.79357355450776)"><svg viewBox="0 0 316.416 113.61285289098447" height="113.61285289098447" width="316.416"><g><svg viewBox="0 0 316.416 113.61285289098447" height="113.61285289098447" width="316.416"><g><svg viewBox="0 0 316.416 113.61285289098447" height="113.61285289098447" width="316.416"><g><svg viewBox="0 0 316.416 113.61285289098447" height="113.61285289098447" width="316.416"><g id="textblocktransform"><svg viewBox="0 0 316.416 113.61285289098447" height="113.61285289098447" width="316.416" id="textblock"><g><svg viewBox="0 0 316.416 66.36223006988922" height="66.36223006988922" width="316.416"><g transform="matrix(1,0,0,1,0,0)"><svg width="316.416" viewBox="-0.08999999999999986 -38.62 201.64000000000001 43.08" height="66.36223006988922" data-palette-color="#011434"><path d="M25.73-2.1L25.73-2.1Q26.98-2.1 26.98-1.12L26.98-1.12Q26.98-0.68 26.44-0.34 25.9 0 24.58 0L24.58 0 3.91 0 3.91-34.55Q13.53-34.55 23.14-34.55L23.14-34.55 25.15-34.62Q26.98-34.62 26.98-33.54L26.98-33.54Q26.98-33.13 26.67-32.78 26.37-32.42 25.98-32.42L25.98-32.42Q25.34-32.42 24.63-32.57L24.63-32.57Q23.58-32.79 21.75-32.79L21.75-32.79 16.36-32.79 16.36-25.34 20.8-25.34Q20.8-25.34 23.8-25.46L23.8-25.46Q24.34-25.46 24.72-25.21 25.1-24.95 25.1-24.49L25.1-24.49Q25.1-23.46 23.73-23.46L23.73-23.46 22.68-23.49Q21.88-23.56 21.34-23.56L21.34-23.56 16.36-23.56 16.36-1.78 21.75-1.78Q23.56-1.78 24.32-1.93L24.32-1.93Q25.22-2.1 25.73-2.1ZM30.75 0.46Q30.39 0.46 30.1 0.18 29.81-0.1 29.81-0.49L29.81-0.49Q29.81-1.27 30.69-1.93L30.69-1.93Q31.56-2.59 31.96-3.13L31.96-3.13Q31.96-3.13 38.43-11.06L38.43-11.06 29.44-26.07 40.55-26.07 45.73-17.46Q50.24-23.27 50.58-23.8L50.58-23.8Q51.24-24.83 51.46-25.39L51.46-25.39Q51.93-26.51 52.76-26.51L52.76-26.51Q53.15-26.51 53.45-26.26 53.76-26 53.76-25.63 53.76-25.27 53.62-24.9 53.49-24.54 53.17-23.97L53.17-23.97Q52.54-22.9 50.95-20.87L50.95-20.87 46.82-15.63 56.22 0 45.07 0 39.5-9.28 33.54-1.78Q32 0.15 31.35 0.39L31.35 0.39Q31.1 0.46 30.75 0.46ZM88.23-19.34L88.23-19.34Q88.28-18.75 88.28-18.16L88.28-18.16 88.28 0 77.8 0 77.8-23.68Q77.53-23.8 77.17-23.8L77.17-23.8 76.39-23.8Q74.48-23.8 71.94-21.19L71.94-21.19Q71.16-20.39 70.45-19.41L70.45-19.41 70.45 0 59.96 0 59.96-26.07 70.45-26.07 70.45-22.14Q74.58-26.51 79.68-26.51L79.68-26.51Q86.27-26.51 87.81-21.63L87.81-21.63Q89.91-24.05 92.44-25.28 94.97-26.51 97.53-26.51L97.53-26.51Q101.9-26.51 104-24.44 106.1-22.36 106.1-18.16L106.1-18.16 106.1 0 95.62 0 95.62-23.71Q95.41-23.8 94.53-23.8 93.65-23.8 92.9-23.47 92.16-23.14 91.38-22.56L91.38-22.56Q89.67-21.31 88.23-19.34ZM130.41 0L130.41-1.61Q127.29 0.46 123.48 0.46L123.48 0.46Q118.43 0.46 115.37-2.08L115.37-2.08Q112.2-4.69 112.2-9.33L112.2-9.33Q112.2-13.43 115.35-16.06L115.35-16.06Q118.57-18.73 123.82-18.73L123.82-18.73Q127.34-18.73 130.41-17.38L130.41-17.38 130.41-24.1Q128.19-24.73 126.49-24.73 124.8-24.73 123.63-24.58 122.45-24.44 121.4-24.15L121.4-24.15Q119.13-23.51 117.96-22.44L117.96-22.44Q117.28-21.8 116.72-21.8 116.15-21.8 115.86-22.08 115.57-22.36 115.57-22.71 115.57-23.05 115.69-23.33 115.81-23.61 116.15-23.9L116.15-23.9Q116.89-24.54 118.6-25.17L118.6-25.17Q122.14-26.51 125.7-26.51L125.7-26.51Q136.54-26.51 139.54-21.34L139.54-21.34Q140.86-19.04 140.86-15.31L140.86-15.31 140.86 0 130.41 0ZM130.41-3.71L130.41-15.48Q127.34-16.97 124.28-16.97L124.28-16.97Q123.8-16.97 123.36-16.89L123.36-16.89 123.36-1.37Q123.48-1.34 123.63-1.34 123.77-1.34 123.92-1.34L123.92-1.34Q127.26-1.34 130.41-3.71L130.41-3.71ZM158.53 0.46L158.53 0.46Q148.96 0.46 148.96-8.28L148.96-8.28 148.94-24.29 146.13-24.17Q144.81-24.17 144.81-25.17 144.81-26.17 146.23-26.17L146.23-26.17 148.57-26.07 148.94-26.07 148.94-29.86 159.41-34.55 159.41-26.07 162.69-26.07 165-26.17Q166.45-26.17 166.45-25.15L166.45-25.15Q166.45-24.68 166.04-24.43 165.64-24.17 165.13-24.17L165.13-24.17 162.1-24.29 159.41-24.29 159.41-1.34Q162.27-1.39 164.17-2.98L164.17-2.98Q165.08-3.66 165.46-4.74 165.83-5.81 166.14-6.12 166.45-6.42 166.86-6.42L166.86-6.42Q167.28-6.42 167.57-6.09 167.86-5.76 167.86-5.31 167.86-4.86 167.62-4.31 167.37-3.76 166.88-3.15L166.88-3.15Q165.79-1.78 164.35-0.98L164.35-0.98Q161.73 0.46 158.53 0.46ZM194.67-5.93L194.67-5.93Q195.62-5.93 195.62-5.05L195.62-5.05Q195.62-4.39 194.76-3.49L194.76-3.49Q190.91 0.46 184.19 0.46L184.19 0.46Q178.16 0.46 174.04-3.17L174.04-3.17Q169.76-6.96 169.76-12.74L169.76-12.74Q169.76-18.65 173.62-22.46L173.62-22.46Q177.7-26.51 184.46-26.51L184.46-26.51Q189.88-26.51 193.57-23.22L193.57-23.22Q197.55-19.68 197.55-13.92L197.55-13.92Q197.55-13.09 197.5-12.16L197.5-12.16 181.38-12.16 181.38-1.68Q183.04-1.34 185.12-1.34L185.12-1.34Q189.51-1.34 192.61-4.25L192.61-4.25Q193.25-4.88 193.52-5.25L193.52-5.25Q194.08-5.93 194.67-5.93ZM188.15-13.94L188.15-24.27Q186.56-24.73 184.56-24.73 182.56-24.73 181.38-24.46L181.38-24.46 181.38-13.94 188.15-13.94Z" opacity="1" transform="matrix(1,0,0,1,0,0)" fill="#011434" class="wordmark-text-0" data-fill-palette-color="primary" id="text-0"></path></svg></g></svg></g><g transform="matrix(1,0,0,1,3.5,79.42282190611093)"><svg viewBox="0 0 309.416 34.19003098487355" height="34.19003098487355" width="309.416"><g transform="matrix(1,0,0,1,0,0)"><svg width="309.416" viewBox="0.5499999999999998 -40.3 493.09999999999997 55.35" height="34.19003098487355" data-palette-color="#011434"><path d="M8.3-7Q10.05-7 11-5.95 11.95-4.9 11.95-3.25L11.95-3.25Q11.95-1.65 11-0.55 10.05 0.55 8.15 0.55L8.15 0.55Q6.4 0.55 5.48-0.55 4.55-1.65 4.55-3.15L4.55-3.15Q4.55-4.75 5.5-5.88 6.45-7 8.3-7L8.3-7ZM8.3-25.5Q10.05-25.5 11-24.45 11.95-23.4 11.95-21.75L11.95-21.75Q11.95-20.15 11-19.05 10.05-17.95 8.15-17.95L8.15-17.95Q6.4-17.95 5.48-19.05 4.55-20.15 4.55-21.6L4.55-21.6Q4.55-23.25 5.5-24.38 6.45-25.5 8.3-25.5L8.3-25.5ZM19.64 0L19.64-33.85 39.74-33.85 39.74-29.35 25.59-29.35 25.59-19.9 37.24-19.9 36.49-15.35 25.59-15.35 25.59-4.5 40.49-4.5 40.49 0 19.64 0ZM49.64 0L43.24 0 51.59-13.2 44.29-24.9 50.89-24.9 54.04-19.75Q54.34-19.25 54.84-18.2 55.34-17.15 55.84-16.1L55.84-16.1Q56.44-17 57.01-17.9 57.59-18.8 58.04-19.65L58.04-19.65Q59.24-21.85 59.76-23.4 60.29-24.95 60.29-24.9L60.29-24.9 66.19-24.9Q66.19-24.95 65.59-23.25 64.99-21.55 63.49-18.75L63.49-18.75Q62.64-17.25 61.54-15.78 60.44-14.3 59.39-13.15L59.39-13.15 67.49 0 60.99 0 57.29-6.45 55.34-10.1 53.39-6.4 49.64 0ZM78.58 10.05L72.88 11.05 72.88-12.6Q72.88-15.6 72.48-17.63 72.08-19.65 71.63-20.9L71.63-20.9Q71.08-22.35 70.43-23.25L70.43-23.25 74.93-25.05Q75.53-24.45 76.03-23.55L76.03-23.55Q76.43-22.8 76.83-21.73 77.23-20.65 77.43-19.2L77.43-19.2Q78.28-22.2 80.13-23.75 81.98-25.3 85.28-25.3L85.28-25.3Q87.63-25.3 89.36-24.43 91.08-23.55 92.21-21.93 93.33-20.3 93.88-18 94.43-15.7 94.43-12.9L94.43-12.9Q94.43-10.05 93.58-7.63 92.73-5.2 91.16-3.45 89.58-1.7 87.38-0.7 85.18 0.3 82.48 0.3L82.48 0.3Q81.53 0.3 80.56 0.2 79.58 0.1 78.58 0L78.58 0 78.58 10.05ZM84.33-21.3Q83.08-21.3 82.03-20.45 80.98-19.6 80.21-18.2 79.43-16.8 79.01-15.05 78.58-13.3 78.58-11.45L78.58-11.45 78.58-4.25Q79.08-4.1 80.08-3.9 81.08-3.7 81.83-3.7L81.83-3.7Q83.73-3.7 84.98-4.35 86.23-5 86.98-6.15 87.73-7.3 88.03-8.9 88.33-10.5 88.33-12.4L88.33-12.4Q88.33-14.15 88.23-15.75 88.13-17.35 87.71-18.6 87.28-19.85 86.48-20.58 85.68-21.3 84.33-21.3L84.33-21.3ZM106.48 0.2Q103.63 0.2 102.28-1.38 100.93-2.95 100.93-5.4L100.93-5.4 100.93-35.25 106.63-36.3 106.63-5.95Q106.63-4.8 107.08-4.35 107.53-3.9 108.38-3.9L108.38-3.9Q108.88-3.9 109.35-3.95 109.83-4 110.23-4.1L110.23-4.1Q110.68-4.2 111.03-4.3L111.03-4.3 111.73-0.7Q111.08-0.45 110.28-0.25L110.28-0.25Q109.58-0.05 108.63 0.08 107.68 0.2 106.48 0.2L106.48 0.2ZM126.57-25.5Q132.32-25.5 134.92-22.1 137.52-18.7 137.52-12.75L137.52-12.75Q137.52-9.95 136.82-7.53 136.12-5.1 134.7-3.33 133.27-1.55 131.12-0.53 128.97 0.5 126.12 0.5L126.12 0.5Q123.27 0.5 121.2-0.38 119.12-1.25 117.77-2.9 116.42-4.55 115.8-6.9 115.17-9.25 115.17-12.2L115.17-12.2Q115.17-15.05 115.87-17.48 116.57-19.9 118-21.68 119.42-23.45 121.57-24.48 123.72-25.5 126.57-25.5L126.57-25.5ZM126.07-21.3Q124.62-21.3 123.7-20.65 122.77-20 122.25-18.82 121.72-17.65 121.52-16.07 121.32-14.5 121.32-12.7L121.32-12.7Q121.32-10.85 121.55-9.2 121.77-7.55 122.37-6.33 122.97-5.1 124-4.4 125.02-3.7 126.62-3.7L126.62-3.7Q128.07-3.7 129-4.35 129.92-5 130.45-6.18 130.97-7.35 131.17-8.9 131.37-10.45 131.37-12.25L131.37-12.25Q131.37-14.1 131.15-15.75 130.92-17.4 130.32-18.65 129.72-19.9 128.7-20.6 127.67-21.3 126.07-21.3L126.07-21.3ZM155.37-19.7Q154.47-19.7 153.57-19.25 152.67-18.8 151.97-18.03 151.27-17.25 150.82-16.15 150.37-15.05 150.37-13.7L150.37-13.7 150.37 0 144.67 0 144.67-12.6Q144.67-15.6 144.27-17.63 143.87-19.65 143.42-20.9L143.42-20.9Q142.87-22.35 142.22-23.25L142.22-23.25 146.72-25.05Q147.17-24.5 147.67-23.7L147.67-23.7Q148.07-23 148.47-22.05 148.87-21.1 149.12-19.8L149.12-19.8Q150.12-22.7 152.02-23.98 153.92-25.25 156.32-25.25L156.32-25.25Q157.47-25.25 158.47-24.98 159.47-24.7 159.42-24.7L159.42-24.7 157.82-19.15Q157.87-19.15 157.24-19.43 156.62-19.7 155.37-19.7L155.37-19.7ZM161.36-11.85Q161.36-15.2 162.29-17.75 163.21-20.3 164.84-22.03 166.46-23.75 168.66-24.63 170.86-25.5 173.41-25.5L173.41-25.5Q175.66-25.5 177.24-24.95 178.81-24.4 179.81-23.45 180.81-22.5 181.29-21.2 181.76-19.9 181.76-18.4L181.76-18.4Q181.76-16.6 180.76-14.98 179.76-13.35 177.89-12.13 176.01-10.9 173.36-10.18 170.71-9.45 167.41-9.4L167.41-9.4Q167.56-8.25 167.89-7.23 168.21-6.2 168.84-5.43 169.46-4.65 170.46-4.2 171.46-3.75 172.96-3.75L172.96-3.75Q174.06-3.75 175.31-4 176.56-4.25 177.61-4.6L177.61-4.6Q178.86-5 180.06-5.5L180.06-5.5 181.56-1.95Q180.26-1.3 178.76-0.8L178.76-0.8Q177.46-0.35 175.76 0 174.06 0.35 172.16 0.35L172.16 0.35Q169.26 0.35 167.21-0.53 165.16-1.4 163.86-3 162.56-4.6 161.96-6.85 161.36-9.1 161.36-11.85L161.36-11.85ZM172.96-21.6Q171.31-21.6 170.24-20.83 169.16-20.05 168.51-18.82 167.86-17.6 167.59-16.07 167.31-14.55 167.26-13L167.26-13Q169.66-13.1 171.34-13.63 173.01-14.15 174.06-14.93 175.11-15.7 175.59-16.6 176.06-17.5 176.06-18.4L176.06-18.4Q176.06-19.85 175.21-20.73 174.36-21.6 172.96-21.6L172.96-21.6ZM207.7-7Q209.45-7 210.4-5.95 211.35-4.9 211.35-3.25L211.35-3.25Q211.35-1.65 210.4-0.55 209.45 0.55 207.55 0.55L207.55 0.55Q205.8 0.55 204.88-0.55 203.95-1.65 203.95-3.15L203.95-3.15Q203.95-4.75 204.9-5.88 205.85-7 207.7-7L207.7-7ZM207.7-25.5Q209.45-25.5 210.4-24.45 211.35-23.4 211.35-21.75L211.35-21.75Q211.35-20.15 210.4-19.05 209.45-17.95 207.55-17.95L207.55-17.95Q205.8-17.95 204.88-19.05 203.95-20.15 203.95-21.6L203.95-21.6Q203.95-23.25 204.9-24.38 205.85-25.5 207.7-25.5L207.7-25.5ZM245.55-24.9L251.35-24.9 251.45-24.5Q251.5-24.05 251.6-23.35 251.7-22.65 251.77-21.7 251.85-20.75 251.85-19.8L251.85-19.8Q251.85-14.25 251.22-10.4 250.6-6.55 249.17-4.17 247.75-1.8 245.4-0.73 243.05 0.35 239.6 0.35L239.6 0.35Q234.75 0.35 232.95-3.65L232.95-3.65Q232.05-1.6 230.47-0.63 228.9 0.35 225.85 0.35L225.85 0.35Q221.95 0.35 220.25-1.9 218.55-4.15 218.55-8.15L218.55-8.15 218.55-24.9 224.25-24.9 224.25-8.6Q224.25-6.5 225-5.13 225.75-3.75 227.55-3.75L227.55-3.75Q229.85-3.75 231.1-6 232.35-8.25 232.35-13.45L232.35-13.45 232.35-24.9 238-24.9Q237.95-21.15 237.95-17.95L237.95-17.95Q237.95-16.55 237.92-15.15 237.9-13.75 237.9-12.5 237.9-11.25 237.9-10.23 237.9-9.2 237.9-8.6L237.9-8.6Q237.9-6.5 238.7-5.13 239.5-3.75 241.3-3.75L241.3-3.75Q243.05-3.75 244.02-5.1 245-6.45 245.45-8.63 245.9-10.8 246-13.58 246.1-16.35 246.1-19.2L246.1-19.2Q246.1-20.35 246.02-21.38 245.95-22.4 245.82-23.2 245.7-24 245.65-24.45L245.65-24.45 245.55-24.9ZM268.94-25.5Q274.69-25.5 277.29-22.1 279.89-18.7 279.89-12.75L279.89-12.75Q279.89-9.95 279.19-7.53 278.49-5.1 277.07-3.33 275.64-1.55 273.49-0.53 271.34 0.5 268.49 0.5L268.49 0.5Q265.64 0.5 263.57-0.38 261.49-1.25 260.14-2.9 258.79-4.55 258.17-6.9 257.54-9.25 257.54-12.2L257.54-12.2Q257.54-15.05 258.24-17.48 258.94-19.9 260.37-21.68 261.79-23.45 263.94-24.48 266.09-25.5 268.94-25.5L268.94-25.5ZM268.44-21.3Q266.99-21.3 266.07-20.65 265.14-20 264.62-18.82 264.09-17.65 263.89-16.07 263.69-14.5 263.69-12.7L263.69-12.7Q263.69-10.85 263.92-9.2 264.14-7.55 264.74-6.33 265.34-5.1 266.37-4.4 267.39-3.7 268.99-3.7L268.99-3.7Q270.44-3.7 271.37-4.35 272.29-5 272.82-6.18 273.34-7.35 273.54-8.9 273.74-10.45 273.74-12.25L273.74-12.25Q273.74-14.1 273.52-15.75 273.29-17.4 272.69-18.65 272.09-19.9 271.07-20.6 270.04-21.3 268.44-21.3L268.44-21.3ZM297.74-19.7Q296.84-19.7 295.94-19.25 295.04-18.8 294.34-18.03 293.64-17.25 293.19-16.15 292.74-15.05 292.74-13.7L292.74-13.7 292.74 0 287.04 0 287.04-12.6Q287.04-15.6 286.64-17.63 286.24-19.65 285.79-20.9L285.79-20.9Q285.24-22.35 284.59-23.25L284.59-23.25 289.09-25.05Q289.54-24.5 290.04-23.7L290.04-23.7Q290.44-23 290.84-22.05 291.24-21.1 291.49-19.8L291.49-19.8Q292.49-22.7 294.39-23.98 296.29-25.25 298.69-25.25L298.69-25.25Q299.84-25.25 300.84-24.98 301.84-24.7 301.79-24.7L301.79-24.7 300.19-19.15Q300.24-19.15 299.61-19.43 298.99-19.7 297.74-19.7L297.74-19.7ZM312.03 0.2Q309.18 0.2 307.83-1.38 306.48-2.95 306.48-5.4L306.48-5.4 306.48-35.25 312.18-36.3 312.18-5.95Q312.18-4.8 312.63-4.35 313.08-3.9 313.93-3.9L313.93-3.9Q314.43-3.9 314.91-3.95 315.38-4 315.78-4.1L315.78-4.1Q316.23-4.2 316.58-4.3L316.58-4.3 317.28-0.7Q316.63-0.45 315.83-0.25L315.83-0.25Q315.13-0.05 314.18 0.08 313.23 0.2 312.03 0.2L312.03 0.2ZM344.73-1.4L340.28 0.4Q340.18 0.35 339.83-0.08 339.48-0.5 339.05-1.25 338.63-2 338.23-3.13 337.83-4.25 337.73-5.75L337.73-5.75Q336.88-2.75 335-1.23 333.13 0.3 329.93 0.3L329.93 0.3Q327.58 0.3 325.85-0.58 324.13-1.45 322.98-3.08 321.83-4.7 321.28-7 320.73-9.3 320.73-12.1L320.73-12.1Q320.73-14.95 321.6-17.38 322.48-19.8 324.05-21.55 325.63-23.3 327.83-24.3 330.03-25.3 332.68-25.3L332.68-25.3Q333.58-25.3 334.6-25.2 335.63-25.1 336.63-24.95L336.63-24.95 336.63-36.25 342.33-35.25 342.33-12.05Q342.33-9.05 342.68-7.08 343.03-5.1 343.48-3.88 343.93-2.65 344.3-2.1 344.68-1.55 344.73-1.4L344.73-1.4ZM330.88-3.75Q332.13-3.75 333.18-4.6 334.23-5.45 335-6.83 335.78-8.2 336.2-9.95 336.63-11.7 336.63-13.55L336.63-13.55 336.63-20.75Q336.13-20.9 335.13-21.1 334.13-21.3 333.33-21.3L333.33-21.3Q331.43-21.3 330.2-20.65 328.98-20 328.23-18.85 327.48-17.7 327.18-16.1 326.88-14.5 326.88-12.6L326.88-12.6Q326.88-10.85 326.98-9.25 327.08-7.65 327.5-6.43 327.93-5.2 328.73-4.48 329.53-3.75 330.88-3.75L330.88-3.75ZM370.22-7Q371.97-7 372.92-5.95 373.87-4.9 373.87-3.25L373.87-3.25Q373.87-1.65 372.92-0.55 371.97 0.55 370.07 0.55L370.07 0.55Q368.32 0.55 367.39-0.55 366.47-1.65 366.47-3.15L366.47-3.15Q366.47-4.75 367.42-5.88 368.37-7 370.22-7L370.22-7ZM370.22-25.5Q371.97-25.5 372.92-24.45 373.87-23.4 373.87-21.75L373.87-21.75Q373.87-20.15 372.92-19.05 371.97-17.95 370.07-17.95L370.07-17.95Q368.32-17.95 367.39-19.05 366.47-20.15 366.47-21.6L366.47-21.6Q366.47-23.25 367.42-24.38 368.37-25.5 370.22-25.5L370.22-25.5ZM406.16-13L400.56 0 396.36 0 390.71-12.85Q390.46-13.4 390.09-14.35 389.71-15.3 389.26-16.45 388.81-17.6 388.31-18.88 387.81-20.15 387.36-21.45L387.36-21.45Q387.36-20.15 387.34-18.88 387.31-17.6 387.26-16.48 387.21-15.35 387.19-14.48 387.16-13.6 387.16-13.1L387.16-13.1 386.66 0 381.06 0 383.06-33.95 387.71-33.95 396.26-12.75Q396.71-11.6 397.29-10.25 397.86-8.9 398.36-7.6L398.36-7.6Q398.86-8.9 399.41-10.23 399.96-11.55 400.46-12.75L400.46-12.75 409.06-33.95 413.61-33.95 415.61 0 410.06 0 409.51-12.95Q409.46-14.2 409.39-16.53 409.31-18.85 409.26-21.25L409.26-21.25Q408.81-20 408.34-18.75 407.86-17.5 407.46-16.4 407.06-15.3 406.71-14.4 406.36-13.5 406.16-13L406.16-13ZM443.36-23.85L443.36-12.05Q443.36-9.05 443.73-7.03 444.11-5 444.56-3.75L444.56-3.75Q445.11-2.25 445.76-1.4L445.76-1.4 441.31 0.4Q440.66-0.25 440.11-1.15L440.11-1.15Q439.66-1.95 439.26-3.08 438.86-4.2 438.76-5.75L438.76-5.75Q437.91-2.75 436.03-1.23 434.16 0.3 430.96 0.3L430.96 0.3Q428.61 0.3 426.88-0.58 425.16-1.45 424.01-3.08 422.86-4.7 422.31-7 421.76-9.3 421.76-12.1L421.76-12.1Q421.76-14.95 422.63-17.38 423.51-19.8 425.08-21.55 426.66-23.3 428.86-24.3 431.06-25.3 433.71-25.3L433.71-25.3Q435.21-25.3 436.83-25.08 438.46-24.85 439.86-24.6 441.26-24.35 442.23-24.13 443.21-23.9 443.36-23.85L443.36-23.85ZM431.91-3.7Q433.16-3.7 434.21-4.55 435.26-5.4 436.03-6.78 436.81-8.15 437.23-9.93 437.66-11.7 437.66-13.55L437.66-13.55 437.66-20.75Q437.16-20.9 436.16-21.1 435.16-21.3 434.36-21.3L434.36-21.3Q432.46-21.3 431.23-20.65 430.01-20 429.26-18.85 428.51-17.7 428.21-16.1 427.91-14.5 427.91-12.6L427.91-12.6Q427.91-10.85 428.01-9.25 428.11-7.65 428.53-6.4 428.96-5.15 429.76-4.42 430.56-3.7 431.91-3.7L431.91-3.7ZM449-20.85L449-24.9 453.5-24.9 454.5-30.75 459.2-31.8 459.2-24.9 465.35-24.9 464.65-20.85 459.2-20.85 459.2-6.05Q459.2-4.75 459.9-4.38 460.6-4 461.45-4L461.45-4Q462.15-4 462.85-4.1 463.55-4.2 464.1-4.35L464.1-4.35Q464.75-4.5 465.35-4.7L465.35-4.7 466.3-0.95 465.85-0.8Q465.4-0.6 464.53-0.38 463.65-0.15 462.48 0.03 461.3 0.2 459.9 0.2L459.9 0.2Q458.5 0.2 457.33-0.1 456.15-0.4 455.3-1.07 454.45-1.75 453.98-2.8 453.5-3.85 453.5-5.4L453.5-5.4 453.5-20.85 449-20.85ZM469.25-11.85Q469.25-15.2 470.17-17.75 471.1-20.3 472.72-22.03 474.35-23.75 476.55-24.63 478.75-25.5 481.3-25.5L481.3-25.5Q483.55-25.5 485.12-24.95 486.7-24.4 487.7-23.45 488.7-22.5 489.17-21.2 489.65-19.9 489.65-18.4L489.65-18.4Q489.65-16.6 488.65-14.98 487.65-13.35 485.77-12.13 483.9-10.9 481.25-10.18 478.6-9.45 475.3-9.4L475.3-9.4Q475.45-8.25 475.77-7.23 476.1-6.2 476.72-5.43 477.35-4.65 478.35-4.2 479.35-3.75 480.85-3.75L480.85-3.75Q481.95-3.75 483.2-4 484.45-4.25 485.5-4.6L485.5-4.6Q486.75-5 487.95-5.5L487.95-5.5 489.45-1.95Q488.15-1.3 486.65-0.8L486.65-0.8Q485.35-0.35 483.65 0 481.95 0.35 480.05 0.35L480.05 0.35Q477.15 0.35 475.1-0.53 473.05-1.4 471.75-3 470.45-4.6 469.85-6.85 469.25-9.1 469.25-11.85L469.25-11.85ZM480.85-21.6Q479.2-21.6 478.12-20.83 477.05-20.05 476.4-18.82 475.75-17.6 475.47-16.07 475.2-14.55 475.15-13L475.15-13Q477.55-13.1 479.22-13.63 480.9-14.15 481.95-14.93 483-15.7 483.47-16.6 483.95-17.5 483.95-18.4L483.95-18.4Q483.95-19.85 483.1-20.73 482.25-21.6 480.85-21.6L480.85-21.6Z" opacity="1" transform="matrix(1,0,0,1,0,0)" fill="#011434" class="slogan-text-1" data-fill-palette-color="secondary" id="text-1"></path></svg></g></svg></g></svg></g></svg></g></svg></g></svg></g></svg></g><g mask="url(#42f79e5c-b390-429b-9952-4bb82c885c5a)"><g transform="matrix(2.9052821156899453, 0, 0, 2.9052821156899453, 75.16290528211566, 1)"><svg xmlns="http://www.w3.org/2000/svg" xmlns:xlink="http://www.w3.org/1999/xlink" version="1.1" x="0" y="0" viewBox="7.802 7.801 84.39600000000002 84.398" enable-background="new 0 0 100 100" xml:space="preserve" height="84.398" width="84.39600000000002" class="icon-none" data-fill-palette-color="accent" id="none"><g fill="#011434" data-fill-palette-color="accent"><path d="M49.996 7.801C26.73 7.801 7.802 26.729 7.802 50c0 23.265 18.928 42.199 42.194 42.199 23.271 0 42.202-18.934 42.202-42.199C92.198 26.729 73.267 7.801 49.996 7.801zM49.996 88.325c-21.129 0-38.323-17.191-38.323-38.325 0-21.137 17.194-38.328 38.323-38.328 21.138 0 38.33 17.191 38.33 38.328C88.326 71.134 71.134 88.325 49.996 88.325z" fill="#011434" data-fill-palette-color="accent"></path><polygon points="42.701,49.677 25.864,70.709 74.136,50.003 25.864,29.291  " fill="#011434" data-fill-palette-color="accent"></polygon></g></svg></g></g></svg></g><defs></defs></svg><rect width="395.52" height="247.2" fill="none" stroke="none" visibility="hidden"></rect></g></svg></g></svg>